<svg xmlns="http://www.w3.org/2000/svg" width="25.599" height="25.599" fill-rule="evenodd" clip-rule="evenodd" image-rendering="optimizeQuality" shape-rendering="geometricPrecision" text-rendering="geometricPrecision" viewBox="0 0 677.32 677.32" id="web">
  <defs>
    <clipPath id="a">
      <path d="M316.24 53.41l0 141.49 -105.71 0c6.09,-23.1 13.7,-44.18 22.54,-62.65 21.9,-45.75 51.14,-75.18 83.17,-78.84z"></path>
    </clipPath>
    <clipPath id="b">
      <path d="M73.48 194.9c42.62,-78.59 121.28,-134.8 213.82,-146.42 -25.75,13.3 -48.57,40.69 -66.4,77.95 -9.64,20.12 -17.86,43.19 -24.32,68.47l-123.1 0z"></path>
    </clipPath>
    <clipPath id="c">
      <path d="M207.18 208.45l109.06 0 0 114.72 -122.22 0c0.46,-41.08 5.14,-79.93 13.16,-114.72z"></path>
    </clipPath>
    <clipPath id="d">
      <path d="M39.4 323.17c0.96,-40.98 10.61,-79.82 27.18,-114.72l126.75 0c-7.84,35.02 -12.4,73.83 -12.86,114.72l-141.07 0z"></path>
    </clipPath>
    <clipPath id="e">
      <path d="M194.02 336.71l122.22 0 0 116.23 -108.86 0c-8.13,-35.16 -12.89,-74.55 -13.36,-116.23z"></path>
    </clipPath>
    <clipPath id="f">
      <path d="M67.32 452.94c-17.01,-35.3 -26.94,-74.65 -27.92,-116.23l141.07 0c0.47,41.48 5.21,80.8 13.35,116.23l-126.5 0z"></path>
    </clipPath>
    <clipPath id="g">
      <path d="M210.74 466.49l105.5 0 0 139.99c-45.27,-5.02 -84.37,-60.13 -105.5,-139.99z"></path>
    </clipPath>
    <clipPath id="h">
      <path d="M287.77 611.46c-92.15,-11.42 -170.58,-67.04 -213.46,-144.97l122.84 0c18.63,71.14 51.37,124.64 90.62,144.97z"></path>
    </clipPath>
    <clipPath id="i">
      <path d="M453.21 582.06c-28.94,14.97 -60.79,25.11 -94.49,29.34 25.76,-13.29 48.58,-40.69 66.42,-77.95 1.55,-3.25 3.07,-6.57 4.55,-9.97l23.52 58.58z"></path>
    </clipPath>
    <clipPath id="j">
      <path d="M422.48 505.52c-2.99,7.73 -6.16,15.11 -9.51,22.11 -21.9,45.75 -51.14,75.18 -83.18,78.84l0 -139.98 77.01 0 15.68 39.03z"></path>
    </clipPath>
    <clipPath id="k">
      <path d="M571.73 466.49c-0.49,0.88 -0.98,1.76 -1.47,2.63l-6.71 -2.63 8.18 0z"></path>
    </clipPath>
    <clipPath id="l">
      <path d="M401.36 452.94l-71.57 0 0 -116.23 122.23 0c-0.23,19.71 -1.42,38.9 -3.49,57.38l-84.06 -33 36.89 91.85z"></path>
    </clipPath>
    <clipPath id="m">
      <path d="M606.63 336.71c-0.91,39.03 -9.72,76.09 -24.87,109.68l-120.2 -47.19c2.39,-20.09 3.76,-41 4,-62.49l141.07 0z"></path>
    </clipPath>
    <clipPath id="n">
      <path d="M452.02 323.17l-122.23 0 0 -114.72 109.21 0c7.92,34.77 12.55,73.63 13.02,114.72z"></path>
    </clipPath>
    <clipPath id="o">
      <path d="M579.45 208.45c16.57,34.9 26.22,73.74 27.18,114.72l-141.07 0c-0.46,-40.89 -5.07,-79.69 -13,-114.72l126.89 0z"></path>
    </clipPath>
    <clipPath id="p">
      <path d="M435.69 194.9l-105.9 0 0 -141.5c45.56,5.05 84.86,60.82 105.9,141.5z"></path>
    </clipPath>
    <clipPath id="q">
      <path d="M358.27 48.42c92.74,11.5 171.59,67.75 214.28,146.48l-123.27 0c-18.57,-71.89 -51.49,-126 -91.01,-146.48z"></path>
    </clipPath>
  </defs>
  <rect width="677.33" height="677.33" x="-.01" y="-.01" fill="none"></rect>
  <path d="M316.24 53.41l0 141.49 -105.71 0c6.09,-23.1 13.7,-44.18 22.54,-62.65 21.9,-45.75 51.14,-75.18 83.17,-78.84z"></path>
  <g clip-path="url(#a)">
    <circle cx="152.94" cy="264.45" r="47.41" fill="none"></circle>
  </g>
  <path fill="none" d="M316.24 53.41l0 141.49 -105.71 0c6.09,-23.1 13.7,-44.18 22.54,-62.65 21.9,-45.75 51.14,-75.18 83.17,-78.84z"></path>
  <path d="M73.48 194.9c42.62,-78.59 121.28,-134.8 213.82,-146.42 -25.75,13.3 -48.57,40.69 -66.4,77.95 -9.64,20.12 -17.86,43.19 -24.32,68.47l-123.1 0z"></path>
  <g clip-path="url(#b)">
    <circle cx="152.94" cy="264.45" r="47.41" fill="none"></circle>
  </g>
  <path fill="none" d="M73.48 194.9c42.62,-78.59 121.28,-134.8 213.82,-146.42 -25.75,13.3 -48.57,40.69 -66.4,77.95 -9.64,20.12 -17.86,43.19 -24.32,68.47l-123.1 0z"></path>
  <path d="M207.18 208.45l109.06 0 0 114.72 -122.22 0c0.46,-41.08 5.14,-79.93 13.16,-114.72z"></path>
  <g clip-path="url(#c)">
    <circle cx="152.94" cy="264.45" r="47.41" fill="none"></circle>
  </g>
  <path fill="none" d="M207.18 208.45l109.06 0 0 114.72 -122.22 0c0.46,-41.08 5.14,-79.93 13.16,-114.72z"></path>
  <path d="M39.4 323.17c0.96,-40.98 10.61,-79.82 27.18,-114.72l126.75 0c-7.84,35.02 -12.4,73.83 -12.86,114.72l-141.07 0z"></path>
  <g clip-path="url(#d)">
    <circle cx="152.94" cy="264.45" r="47.41" fill="none"></circle>
  </g>
  <path fill="none" d="M39.4 323.17c0.96,-40.98 10.61,-79.82 27.18,-114.72l126.75 0c-7.84,35.02 -12.4,73.83 -12.86,114.72l-141.07 0z"></path>
  <path d="M194.02 336.71l122.22 0 0 116.23 -108.86 0c-8.13,-35.16 -12.89,-74.55 -13.36,-116.23z"></path>
  <g clip-path="url(#e)">
    <circle cx="152.94" cy="264.45" r="47.41" fill="none"></circle>
  </g>
  <path fill="none" d="M194.02 336.71l122.22 0 0 116.23 -108.86 0c-8.13,-35.16 -12.89,-74.55 -13.36,-116.23z"></path>
  <path d="M67.32 452.94c-17.01,-35.3 -26.94,-74.65 -27.92,-116.23l141.07 0c0.47,41.48 5.21,80.8 13.35,116.23l-126.5 0z"></path>
  <g clip-path="url(#f)">
    <circle cx="152.94" cy="264.45" r="47.41" fill="none"></circle>
  </g>
  <path fill="none" d="M67.32 452.94c-17.01,-35.3 -26.94,-74.65 -27.92,-116.23l141.07 0c0.47,41.48 5.21,80.8 13.35,116.23l-126.5 0z"></path>
  <path d="M210.74 466.49l105.5 0 0 139.99c-45.27,-5.02 -84.37,-60.13 -105.5,-139.99z"></path>
  <g clip-path="url(#g)">
    <circle cx="152.94" cy="264.45" r="47.41" fill="none"></circle>
  </g>
  <path fill="none" d="M210.74 466.49l105.5 0 0 139.99c-45.27,-5.02 -84.37,-60.13 -105.5,-139.99z"></path>
  <path d="M287.77 611.46c-92.15,-11.42 -170.58,-67.04 -213.46,-144.97l122.84 0c18.63,71.14 51.37,124.64 90.62,144.97z"></path>
  <g clip-path="url(#h)">
    <circle cx="152.94" cy="264.45" r="47.41" fill="none"></circle>
  </g>
  <path fill="none" d="M287.77 611.46c-92.15,-11.42 -170.58,-67.04 -213.46,-144.97l122.84 0c18.63,71.14 51.37,124.64 90.62,144.97z"></path>
  <path d="M453.21 582.06c-28.94,14.97 -60.79,25.11 -94.49,29.34 25.76,-13.29 48.58,-40.69 66.42,-77.95 1.55,-3.25 3.07,-6.57 4.55,-9.97l23.52 58.58z"></path>
  <g clip-path="url(#i)">
    <circle cx="152.94" cy="264.45" r="47.41" fill="none"></circle>
  </g>
  <path fill="none" d="M453.21 582.06c-28.94,14.97 -60.79,25.11 -94.49,29.34 25.76,-13.29 48.58,-40.69 66.42,-77.95 1.55,-3.25 3.07,-6.57 4.55,-9.97l23.52 58.58z"></path>
  <path d="M422.48 505.52c-2.99,7.73 -6.16,15.11 -9.51,22.11 -21.9,45.75 -51.14,75.18 -83.18,78.84l0 -139.98 77.01 0 15.68 39.03z"></path>
  <g clip-path="url(#j)">
    <circle cx="152.94" cy="264.45" r="47.41" fill="none"></circle>
  </g>
  <path fill="none" d="M422.48 505.52c-2.99,7.73 -6.16,15.11 -9.51,22.11 -21.9,45.75 -51.14,75.18 -83.18,78.84l0 -139.98 77.01 0 15.68 39.03z"></path>
  <path d="M571.73 466.49c-0.49,0.88 -0.98,1.76 -1.47,2.63l-6.71 -2.63 8.18 0z"></path>
  <g clip-path="url(#k)">
    <circle cx="152.94" cy="264.45" r="47.41" fill="none"></circle>
  </g>
  <path fill="none" d="M571.73 466.49c-0.49,0.88 -0.98,1.76 -1.47,2.63l-6.71 -2.63 8.18 0z"></path>
  <path d="M401.36 452.94l-71.57 0 0 -116.23 122.23 0c-0.23,19.71 -1.42,38.9 -3.49,57.38l-84.06 -33 36.89 91.85z"></path>
  <g clip-path="url(#l)">
    <circle cx="152.94" cy="264.45" r="47.41" fill="none"></circle>
  </g>
  <path fill="none" d="M401.36 452.94l-71.57 0 0 -116.23 122.23 0c-0.23,19.71 -1.42,38.9 -3.49,57.38l-84.06 -33 36.89 91.85z"></path>
  <path d="M606.63 336.71c-0.91,39.03 -9.72,76.09 -24.87,109.68l-120.2 -47.19c2.39,-20.09 3.76,-41 4,-62.49l141.07 0z"></path>
  <g clip-path="url(#m)">
    <circle cx="152.94" cy="264.45" r="47.41" fill="none"></circle>
  </g>
  <path fill="none" d="M606.63 336.71c-0.91,39.03 -9.72,76.09 -24.87,109.68l-120.2 -47.19c2.39,-20.09 3.76,-41 4,-62.49l141.07 0z"></path>
  <path d="M452.02 323.17l-122.23 0 0 -114.72 109.21 0c7.92,34.77 12.55,73.63 13.02,114.72z"></path>
  <g clip-path="url(#n)">
    <circle cx="152.94" cy="264.45" r="47.41" fill="none"></circle>
  </g>
  <path fill="none" d="M452.02 323.17l-122.23 0 0 -114.72 109.21 0c7.92,34.77 12.55,73.63 13.02,114.72z"></path>
  <path d="M579.45 208.45c16.57,34.9 26.22,73.74 27.18,114.72l-141.07 0c-0.46,-40.89 -5.07,-79.69 -13,-114.72l126.89 0z"></path>
  <g clip-path="url(#o)">
    <circle cx="152.94" cy="264.45" r="47.41" fill="none"></circle>
  </g>
  <path fill="none" d="M579.45 208.45c16.57,34.9 26.22,73.74 27.18,114.72l-141.07 0c-0.46,-40.89 -5.07,-79.69 -13,-114.72l126.89 0z"></path>
  <path d="M435.69 194.9l-105.9 0 0 -141.5c45.56,5.05 84.86,60.82 105.9,141.5z"></path>
  <g clip-path="url(#p)">
    <circle cx="152.94" cy="264.45" r="47.41" fill="none"></circle>
  </g>
  <path fill="none" d="M435.69 194.9l-105.9 0 0 -141.5c45.56,5.05 84.86,60.82 105.9,141.5z"></path>
  <path d="M358.27 48.42c92.74,11.5 171.59,67.75 214.28,146.48l-123.27 0c-18.57,-71.89 -51.49,-126 -91.01,-146.48z"></path>
  <g clip-path="url(#q)">
    <circle cx="152.94" cy="264.45" r="47.41" fill="none"></circle>
  </g>
  <path fill="none" d="M358.27 48.42c92.74,11.5 171.59,67.75 214.28,146.48l-123.27 0c-18.57,-71.89 -51.49,-126 -91.01,-146.48z"></path>
  <polygon fill="#0052d6" points="608.25 470.24 387.1 383.42 476.06 604.93 519.48 560.68 589.75 631.08 638 582.91 567.24 512.02"></polygon>
</svg>
